<?xml version="1.0" standalone="no"?>
<!DOCTYPE svg PUBLIC "-//W3C//DTD SVG 20010904//EN"
 "http://www.w3.org/TR/2001/REC-SVG-20010904/DTD/svg10.dtd">
<svg version="1.0" xmlns="http://www.w3.org/2000/svg"
 width="1240.000000pt" height="1240.000000pt" viewBox="0 0 1240.000000 1240.000000"
 preserveAspectRatio="xMidYMid meet">
<metadata>
Created by potrace 1.14, written by Peter Selinger 2001-2017
</metadata>
<g transform="translate(0.000000,1240.000000) scale(0.100000,-0.100000)"
fill="#000000" stroke="none">
<path d="M5890 12369 c-30 -4 -142 -15 -248 -24 -1605 -129 -3137 -930 -4192
-2190 -812 -970 -1331 -2248 -1410 -3470 -6 -93 -15 -189 -20 -213 -13 -55
-13 -479 0 -534 5 -24 14 -119 20 -212 25 -403 109 -856 240 -1296 173 -581
462 -1188 808 -1695 850 -1248 2135 -2146 3591 -2510 331 -83 636 -134 951
-160 102 -9 221 -20 266 -25 44 -6 174 -10 289 -10 115 0 245 4 289 10 45 5
167 17 271 25 1594 132 3123 931 4169 2179 805 961 1310 2179 1415 3416 5 63
15 178 22 255 26 312 -9 871 -82 1305 -367 2176 -1849 3978 -3914 4758 -676
255 -1421 392 -2165 398 -135 1 -270 -2 -300 -7z m-3721 -4795 c15 -19 77
-195 125 -359 28 -93 78 -230 89 -243 13 -17 19 -3 53 118 12 47 36 132 53
190 16 58 41 145 55 193 26 93 40 112 91 122 17 3 144 5 283 3 251 -3 254 -3
272 -26 18 -22 19 -50 13 -650 -4 -522 -8 -630 -20 -642 -20 -22 -401 -22
-427 -1 -16 13 -18 36 -16 220 1 114 2 240 1 281 l-2 75 -20 -50 c-33 -78 -45
-115 -67 -190 -18 -64 -78 -240 -104 -307 -14 -37 -57 -48 -190 -48 -147 0
-167 10 -189 95 -4 16 -25 82 -46 145 -22 63 -54 161 -72 218 -19 56 -38 102
-44 102 -7 0 -8 -44 -3 -132 21 -394 21 -394 -5 -412 -34 -23 -383 -24 -417 0
l-22 15 0 635 c0 625 0 634 20 654 20 20 30 21 296 18 268 -3 276 -4 293 -24z
m2119 -1 c16 -16 36 -47 45 -70 27 -68 31 -80 139 -368 17 -44 43 -114 58
-155 15 -41 49 -129 75 -195 26 -66 72 -181 101 -256 74 -187 87 -231 71 -246
-8 -8 -79 -13 -233 -15 -257 -4 -248 -7 -284 95 -12 34 -29 68 -38 75 -16 13
-304 18 -349 6 -21 -6 -44 -48 -68 -124 -17 -55 -37 -60 -252 -60 -191 0 -238
7 -249 34 -3 8 15 63 39 123 25 59 57 140 72 178 14 39 36 93 47 120 12 28 29
70 38 95 10 25 48 124 85 220 37 96 80 209 95 250 34 94 77 204 96 251 28 64
44 68 276 69 l208 0 28 -27z m1153 10 c12 -13 13 -124 10 -652 -2 -409 -7
-640 -13 -648 -8 -10 -64 -13 -219 -13 -203 0 -208 0 -223 22 -14 19 -16 79
-16 443 0 314 -3 424 -12 433 -8 8 -55 12 -143 12 -71 0 -137 5 -145 10 -12 7
-16 42 -18 184 -3 185 1 211 40 219 13 2 181 5 374 6 316 1 353 -1 365 -16z
m891 -13 c19 -24 20 -33 13 -195 -4 -93 -11 -176 -17 -182 -7 -9 -49 -13 -140
-13 -71 0 -138 -5 -149 -10 -18 -10 -19 -26 -19 -443 0 -324 -3 -436 -12 -445
-9 -9 -71 -12 -218 -12 -185 0 -209 2 -222 18 -23 26 -35 1258 -12 1290 14 21
19 21 385 19 l371 -2 20 -25z m577 6 c19 -18 21 -31 23 -225 l3 -206 134 -3
c97 -2 137 1 149 10 13 11 14 39 9 200 -7 187 -6 187 17 215 l24 28 203 -2
c168 -1 205 -4 218 -17 13 -14 15 -86 12 -648 -2 -417 -6 -637 -13 -645 -8
-10 -64 -13 -219 -13 -203 0 -208 0 -223 22 -13 19 -16 59 -16 233 0 151 -3
214 -12 223 -8 8 -55 12 -145 12 l-133 0 -10 -26 c-6 -14 -10 -119 -10 -233 0
-148 -3 -210 -12 -219 -9 -9 -71 -12 -219 -12 -175 0 -210 2 -223 16 -14 14
-16 86 -16 643 0 661 -1 653 45 664 11 3 104 5 206 4 168 -2 189 -4 208 -21z
m1810 0 c20 -18 21 -29 21 -183 0 -220 20 -203 -247 -203 -115 0 -214 -4 -221
-9 -8 -4 -12 -19 -10 -32 l3 -24 207 -5 c192 -5 208 -6 222 -25 12 -16 15 -51
16 -158 0 -77 -5 -147 -10 -158 -10 -18 -23 -19 -210 -19 -187 0 -201 -1 -220
-20 -23 -23 -24 -29 -10 -64 l10 -26 235 0 235 0 15 -24 c23 -35 18 -332 -5
-346 -24 -16 -905 -13 -918 3 -6 7 -12 249 -17 642 -7 611 -6 631 12 648 17
15 52 17 319 19 552 5 549 5 573 -16z m601 -2 c15 -15 24 -43 31 -95 22 -160
32 -215 65 -370 8 -37 14 -81 14 -97 0 -28 15 -51 26 -40 5 5 16 58 48 233 55
295 68 350 87 370 18 19 33 20 240 20 256 0 247 4 268 -107 16 -83 40 -200 56
-268 7 -30 20 -91 30 -135 23 -106 23 -105 33 -105 8 0 16 36 48 225 9 50 22
116 30 147 8 32 14 73 14 91 0 49 29 125 53 142 28 20 426 22 445 3 22 -22 13
-110 -24 -223 -19 -60 -48 -157 -64 -215 -15 -58 -35 -127 -43 -155 -36 -119
-49 -165 -72 -250 -28 -106 -50 -183 -69 -245 -35 -113 -48 -157 -55 -185 -12
-52 -34 -57 -260 -52 -231 6 -225 4 -246 88 -8 30 -36 144 -64 254 -28 110
-51 205 -51 213 0 7 -7 29 -15 49 -19 46 -31 36 -50 -41 -8 -31 -22 -82 -30
-114 -9 -31 -27 -102 -40 -157 -45 -189 -56 -228 -71 -257 l-15 -28 -219 0
c-217 0 -220 0 -234 23 -13 19 -40 112 -121 412 -8 28 -23 86 -35 130 -11 44
-27 100 -34 125 -8 25 -21 70 -29 100 -42 149 -50 177 -58 200 -5 14 -18 61
-30 105 -11 44 -27 100 -35 124 -18 53 -5 97 29 105 12 2 113 3 224 3 191 -2
204 -3 223 -23z m-870 -1418 c47 -8 96 -19 110 -24 96 -38 122 -51 181 -89 36
-24 71 -55 77 -68 10 -22 6 -30 -46 -86 -71 -78 -188 -191 -208 -202 -10 -6
-30 3 -65 29 -61 45 -109 63 -167 64 -51 0 -82 -14 -82 -38 0 -27 45 -49 185
-91 153 -46 278 -137 335 -243 32 -59 34 -69 34 -158 1 -112 -20 -178 -86
-272 -41 -58 -142 -136 -198 -153 -14 -4 -30 -11 -36 -16 -17 -14 -164 -39
-229 -39 -70 0 -204 22 -271 45 -82 28 -214 99 -250 134 -25 26 -33 40 -28 55
10 32 236 265 263 273 15 4 35 0 50 -10 126 -78 149 -87 212 -89 74 -2 89 4
89 37 0 29 -6 33 -159 90 -67 24 -140 54 -163 66 -170 87 -246 230 -219 409
19 123 88 226 200 298 61 39 83 47 201 72 106 22 162 23 270 6z m2100 -6 c100
-21 184 -55 237 -96 32 -24 33 -28 33 -95 l0 -70 -57 -68 c-32 -37 -75 -89
-97 -115 -57 -70 -77 -76 -129 -39 -88 62 -169 78 -243 47 -62 -26 -93 -52
-124 -107 -54 -94 -36 -241 37 -308 91 -83 203 -92 302 -24 85 59 87 59 177
-43 124 -139 127 -143 136 -191 14 -74 2 -116 -42 -151 -50 -39 -150 -84 -220
-99 -154 -33 -369 -22 -485 25 -197 80 -328 209 -408 401 -30 74 -32 87 -35
227 -4 169 8 236 61 341 104 203 256 316 502 373 75 18 254 13 355 -8z m-5412
-33 c11 -10 29 -48 41 -85 12 -37 26 -76 31 -87 12 -30 47 -133 64 -190 8 -27
24 -75 36 -105 12 -30 26 -71 32 -90 5 -19 15 -41 22 -48 12 -13 25 17 55 123
6 22 29 101 51 175 23 74 50 169 61 210 25 91 24 89 65 106 26 11 92 14 283
14 245 0 250 0 275 -22 l24 -23 5 -622 c2 -342 1 -626 -2 -631 -17 -26 -58
-32 -224 -32 -192 0 -232 8 -241 47 -4 13 -2 127 4 251 7 145 8 241 1 267 -5
22 -9 32 -10 22 -1 -11 -7 -31 -15 -45 -18 -35 -34 -83 -55 -162 -28 -101 -72
-233 -112 -338 -13 -34 -48 -42 -184 -42 -141 0 -168 7 -182 47 -12 30 -83
257 -133 420 -18 57 -36 106 -42 109 -6 4 -8 -34 -4 -112 3 -66 9 -191 12
-280 l6 -161 -30 -12 c-20 -9 -85 -11 -216 -9 -165 3 -189 5 -200 20 -11 14
-12 144 -9 630 2 337 6 623 9 636 2 13 15 27 27 32 12 5 137 8 278 7 231 -2
259 -4 277 -20z m1664 5 c10 -10 14 -103 18 -410 5 -357 7 -400 23 -430 24
-44 72 -72 125 -72 54 0 96 24 125 70 21 34 22 44 25 427 l3 393 27 20 c25 20
37 21 220 18 180 -3 195 -4 208 -23 13 -17 14 -88 12 -475 -3 -498 2 -452 -66
-589 -34 -68 -123 -158 -193 -195 -279 -145 -662 -101 -845 96 -62 68 -99 141
-125 252 -18 75 -19 107 -13 493 l7 414 26 14 c35 20 403 17 423 -3z m2618 3
l30 -16 0 -97 c0 -53 3 -338 7 -633 l6 -536 -24 -16 c-20 -15 -53 -17 -224
-17 -156 0 -205 3 -220 14 -18 13 -19 35 -16 641 1 345 5 633 7 640 11 27 54
34 227 34 141 1 184 -2 207 -14z m-7427 -277 c27 -14 57 -69 57 -105 0 -17 4
-34 9 -37 5 -3 12 -23 15 -43 8 -40 33 -134 46 -168 4 -11 13 -39 19 -62 13
-49 31 -57 31 -14 0 40 30 184 41 196 5 5 9 26 9 46 0 21 7 44 15 53 8 8 15
24 15 37 0 30 35 83 62 95 31 14 340 9 367 -5 25 -14 29 -76 6 -107 -8 -10
-15 -36 -15 -56 0 -20 -4 -40 -10 -43 -5 -3 -10 -15 -10 -27 0 -11 -6 -32 -14
-46 -8 -15 -24 -56 -37 -92 -12 -36 -25 -69 -29 -75 -4 -5 -15 -39 -25 -75 -9
-36 -24 -79 -31 -97 -8 -17 -14 -38 -14 -46 0 -8 -7 -20 -15 -27 -8 -7 -15
-22 -15 -34 0 -12 -4 -26 -9 -32 -9 -8 -26 -65 -38 -126 -3 -15 -11 -33 -19
-39 -8 -6 -14 -23 -14 -38 0 -15 -12 -40 -29 -59 l-30 -32 -187 0 c-179 0
-189 1 -211 22 -13 12 -23 27 -23 34 0 6 -7 25 -15 40 -8 16 -15 39 -15 50 0
12 -7 27 -15 34 -8 7 -15 22 -15 34 0 11 -7 30 -15 40 -8 11 -15 32 -15 47 0
15 -4 31 -10 34 -5 3 -10 18 -10 33 0 15 -7 36 -15 46 -8 11 -15 30 -15 42 0
12 -7 27 -15 34 -8 7 -15 22 -15 34 -1 11 -7 32 -15 46 -8 14 -14 34 -15 46 0
12 -10 36 -23 55 -21 31 -67 159 -67 186 0 6 -11 31 -25 54 -34 60 -34 120 1
148 24 19 35 20 202 14 97 -3 185 -10 195 -15z m1939 -9 c10 -5 18 -13 18 -18
0 -5 18 -41 40 -81 22 -40 40 -79 40 -86 0 -7 7 -30 16 -51 9 -21 23 -54 31
-73 8 -19 21 -48 29 -63 8 -16 14 -33 14 -39 0 -10 23 -67 41 -100 5 -10 9
-27 9 -37 0 -11 4 -22 9 -25 4 -3 21 -40 36 -83 15 -43 32 -83 37 -89 4 -6 15
-36 24 -65 9 -29 27 -76 40 -103 30 -62 30 -77 -1 -110 l-24 -26 -169 0 c-156
0 -171 2 -196 21 -15 11 -26 31 -26 44 0 12 -7 28 -15 35 -8 7 -15 23 -15 35
0 12 -7 28 -15 35 -8 7 -15 23 -15 35 0 12 -6 28 -14 34 -8 6 -16 24 -19 39
-3 15 -11 45 -17 67 -6 22 -17 75 -24 117 -6 42 -15 81 -19 85 -11 11 -27 -17
-27 -49 0 -15 -4 -30 -10 -33 -5 -3 -10 -21 -10 -38 -1 -18 -9 -57 -20 -87
-11 -30 -19 -67 -20 -83 0 -25 -10 -51 -35 -87 -6 -8 -19 -41 -30 -73 -30 -93
-39 -97 -226 -97 -87 0 -170 5 -185 10 -25 10 -26 13 -22 68 3 32 17 83 32
117 52 114 56 123 56 129 0 3 11 29 25 58 14 28 25 57 25 63 0 7 14 37 30 68
17 31 30 67 30 79 0 13 7 32 15 42 8 11 15 30 15 42 0 13 4 25 9 28 5 4 17 32
27 64 9 31 23 68 29 82 36 75 74 157 79 173 12 36 58 44 224 39 86 -2 164 -8
174 -13z m-824 -7 c26 -26 32 -123 33 -532 1 -184 3 -355 4 -379 2 -24 -1 -51
-5 -60 -5 -9 -11 -24 -14 -34 -3 -9 -17 -22 -31 -27 -35 -13 -311 -13 -335 0
-11 6 -26 26 -35 44 -15 30 -16 81 -12 443 6 444 12 527 42 549 14 11 58 14
177 14 140 0 160 -2 176 -18z"/>
<path d="M4006 6936 c-16 -47 -26 -92 -23 -100 5 -12 21 -16 61 -16 30 0 57 4
61 9 8 14 -51 191 -64 191 -3 0 -19 -38 -35 -84z"/>
</g>
</svg>
